<?xml version="1.0" standalone="no"?>
<!DOCTYPE svg PUBLIC "-//W3C//DTD SVG 20010904//EN"
 "http://www.w3.org/TR/2001/REC-SVG-20010904/DTD/svg10.dtd">
<svg version="1.0" xmlns="http://www.w3.org/2000/svg"
 width="512.000000pt" height="512.000000pt" viewBox="0 0 512.000000 512.000000"
 preserveAspectRatio="xMidYMid meet">
<metadata>
Created by potrace 1.11, written by Peter Selinger 2001-2013
</metadata>
<g transform="translate(0.000000,512.000000) scale(0.100000,-0.100000)"
fill="#000000" stroke="none">
<path d="M2349 3520 c-140 -235 -1178 -2038 -1222 -2122 -29 -54 -38 -81 -31
-88 11 -11 44 45 801 1360 544 946 545 947 541 973 -2 16 -25 -16 -89 -123z"/>
<path d="M1147 1262 c-19 -21 -22 -32 -8 -32 5 0 11 9 14 19 4 16 16 21 53 24
l49 3 -46 2 c-33 2 -50 -3 -62 -16z"/>
<path d="M951 1253 c-1 -16 5 -23 17 -23 10 0 13 3 6 8 -6 4 -14 14 -17 22 -4
10 -6 8 -6 -7z"/>
<path d="M1613 1263 c59 -2 154 -2 210 0 56 1 8 3 -108 3 -115 0 -161 -2 -102
-3z"/>
<path d="M2603 1253 c59 -2 155 -2 215 0 59 1 10 3 -108 3 -118 0 -167 -2
-107 -3z"/>
<path d="M3255 1243 c55 -2 104 -8 109 -13 6 -6 60 -10 121 -9 184 1 87 17
-131 22 -110 2 -154 2 -99 0z"/>
<path d="M1010 1209 c-24 -10 -24 -11 -6 -25 17 -12 165 -14 1005 -13 542 1
1049 5 1126 8 88 5 -97 8 -505 10 -679 3 -1528 16 -1570 25 -14 3 -36 1 -50
-5z"/>
<path d="M3078 1213 c23 -2 61 -2 85 0 23 2 4 4 -43 4 -47 0 -66 -2 -42 -4z"/>
</g>
</svg>
